<svg version="1.1" id="Layer_1" xmlns="http://www.w3.org/2000/svg" xmlns:xlink="http://www.w3.org/1999/xlink" x="0px" y="0px"
	 width="100%" viewBox="0 0 637 184" enable-background="new 0 0 637 184" xml:space="preserve">
<path fill="#FDFDFD" opacity="1.000000" stroke="none" 
	d="
M461.000000,185.000000 
	C307.379974,185.000000 154.259933,185.000000 1.069950,185.000000 
	C1.069950,123.732040 1.069950,62.463982 1.069950,1.097960 
	C213.333313,1.097960 425.666656,1.097960 637.973022,1.097960 
	C637.973022,62.406662 637.973022,123.703339 637.973022,185.000000 
	C579.130676,185.000000 520.315369,185.000000 461.000000,185.000000 
M120.187576,118.885536 
	C120.134300,118.259453 120.081017,117.633369 119.838524,116.121780 
	C120.129417,102.502602 115.471489,95.460106 102.710579,90.967461 
	C97.861839,89.260406 92.759689,88.284019 87.802383,86.871643 
	C82.055679,85.234360 76.102501,84.003716 70.726364,81.535080 
	C68.469643,80.498833 66.232674,76.724281 66.260612,74.219986 
	C66.285072,72.028351 69.151329,68.541229 71.366516,67.970039 
	C76.398163,66.672615 81.969292,65.788315 87.015182,66.611450 
	C94.949463,67.905792 102.631752,70.744797 110.925529,73.071373 
	C113.225685,68.001854 115.810600,62.304729 118.474396,56.433739 
	C117.809525,55.937912 117.437592,55.601181 117.012764,55.356174 
	C116.148811,54.857910 115.276009,54.366837 114.372597,53.946396 
	C101.193024,47.812702 87.370239,45.826599 72.978989,47.585850 
	C65.239815,48.531929 58.155437,51.043648 51.873009,55.853607 
	C39.029175,65.687111 37.476521,91.453857 58.297348,99.003670 
	C62.509880,100.531166 66.837280,101.767021 71.162064,102.953903 
	C77.574753,104.713776 84.093071,106.111671 90.446121,108.056602 
	C93.785378,109.078873 96.884850,111.657280 95.905716,115.349785 
	C95.164909,118.143539 92.752258,121.770882 90.292442,122.559517 
	C85.535294,124.084702 80.181732,124.527939 75.144119,124.235512 
	C65.131233,123.654297 56.411663,119.035759 47.739151,113.270973 
	C44.837200,119.294052 42.139847,124.892487 39.453754,130.467545 
	C40.368683,131.295471 40.811749,131.790436 41.343117,132.157608 
	C42.437531,132.913834 43.553322,133.646484 44.705189,134.311081 
	C59.961777,143.113632 76.298805,145.375015 93.414604,141.899704 
	C106.383072,139.266449 116.090492,132.571030 120.187576,118.885536 
M130.638412,103.784714 
	C135.048599,125.300835 147.714020,138.737808 168.551941,142.389252 
	C187.617310,145.730072 205.158234,142.417892 218.493805,128.429855 
	C213.766571,123.501015 209.448303,118.998589 205.106186,114.471298 
	C192.486237,123.624298 178.274673,125.780579 166.933090,120.097679 
	C160.328552,116.788361 156.299866,111.571739 154.474197,103.729485 
	C179.046204,103.729485 202.820938,103.729485 226.629150,103.729485 
	C226.938583,102.535660 227.221741,101.755363 227.337570,100.950974 
	C231.057541,75.117065 214.337341,51.685383 189.419510,47.791470 
	C160.422409,43.260090 135.383057,59.568348 130.956100,86.089005 
	C130.140488,90.975113 130.298141,96.023674 129.573166,101.229134 
	C129.792511,101.831604 130.011841,102.434074 130.638412,103.784714 
M565.999878,133.210144 
	C566.925171,132.431335 567.850525,131.652542 569.567200,130.207733 
	C569.567200,134.483429 569.567200,137.736313 569.567200,141.087204 
	C577.769897,141.087204 585.469116,141.087204 593.158142,141.087204 
	C593.158142,110.121414 593.158142,79.557739 593.158142,49.025650 
	C585.204651,49.025650 577.617371,49.025650 569.848999,49.025650 
	C569.626587,52.363834 569.426575,55.365345 569.188477,58.938549 
	C549.431091,39.391064 518.215454,46.190083 504.653931,62.280552 
	C487.044006,83.174400 490.834076,118.907318 512.793396,135.171722 
	C528.812988,147.036774 550.984009,146.438873 565.999878,133.210144 
M317.809113,115.670601 
	C316.046844,113.037560 314.553955,114.735580 312.941040,115.914139 
	C305.208282,121.564484 296.558258,123.834000 287.029694,122.929550 
	C275.396942,121.825371 266.172760,114.124992 264.670807,103.584610 
	C288.778564,103.584610 312.799133,103.584610 336.683807,103.584610 
	C341.911407,74.663849 324.031342,50.328224 295.926849,47.266571 
	C269.468872,44.384293 246.105820,60.063549 241.123291,84.045990 
	C234.609222,115.400215 254.209320,141.328476 286.172302,143.263672 
	C302.647583,144.261169 317.516357,140.312897 329.454742,127.161263 
	C325.629547,123.395157 321.966003,119.788208 317.809113,115.670601 
M379.227386,56.716618 
	C379.227386,54.132931 379.227386,51.549244 379.227386,49.095222 
	C370.803467,49.095222 363.230164,49.095222 355.729004,49.095222 
	C355.729004,80.036362 355.729004,110.604012 355.729004,141.334869 
	C363.825714,141.334869 371.551147,141.334869 379.787659,141.334869 
	C379.787659,139.225128 379.786926,137.430557 379.787750,135.635986 
	C379.794250,121.646042 379.791260,107.656090 379.810547,93.666168 
	C379.828186,80.853615 386.877655,72.254639 399.512360,69.980209 
	C403.564758,69.250725 407.732422,69.161682 412.103729,68.755814 
	C412.103729,61.671562 412.103729,54.572525 412.103729,47.498180 
	C401.638977,45.858585 392.892731,49.347874 379.751465,60.460079 
	C379.555725,59.367210 379.397705,58.484932 379.227386,56.716618 
M452.892242,115.499878 
	C452.882172,108.334023 452.872925,101.168159 452.861877,94.002304 
	C452.841278,80.679062 460.008881,72.117653 473.322418,69.917976 
	C477.175934,69.281296 481.135254,69.284752 485.071777,68.992836 
	C485.071777,61.696869 485.071777,54.592995 485.071777,47.166660 
	C472.103455,46.700928 461.404907,50.806747 452.217896,61.636898 
	C452.217896,56.553860 452.217896,52.835304 452.217896,48.995171 
	C444.005066,48.995171 436.409424,48.995171 428.572632,48.995171 
	C428.572632,79.854301 428.572632,110.419632 428.572632,141.271606 
	C436.736389,141.271606 444.617950,141.271606 452.887268,141.271606 
	C452.887268,132.786697 452.887268,124.643288 452.892242,115.499878 
z"/>
<path fill="#040404" opacity="1.000000" stroke="none" 
	d="
M565.732605,133.480698 
	C550.984009,146.438873 528.812988,147.036774 512.793396,135.171722 
	C490.834076,118.907318 487.044006,83.174400 504.653931,62.280552 
	C518.215454,46.190083 549.431091,39.391064 569.188477,58.938549 
	C569.426575,55.365345 569.626587,52.363834 569.848999,49.025650 
	C577.617371,49.025650 585.204651,49.025650 593.158142,49.025650 
	C593.158142,79.557739 593.158142,110.121414 593.158142,141.087204 
	C585.469116,141.087204 577.769897,141.087204 569.567200,141.087204 
	C569.567200,137.736313 569.567200,134.483429 569.567200,130.207733 
	C567.850525,131.652542 566.925171,132.431335 565.732605,133.480698 
M535.438416,69.711754 
	C515.382935,76.070122 513.570740,102.843941 525.807678,114.994720 
	C535.711365,124.828674 553.099854,124.651459 562.097351,114.522789 
	C569.720215,105.941589 571.059082,89.982719 565.006714,79.844231 
	C559.473267,70.575043 548.800415,66.723091 535.438416,69.711754 
z"/>
<path fill="#060606" opacity="1.000000" stroke="none" 
	d="
M318.055786,115.925934 
	C321.966003,119.788208 325.629547,123.395157 329.454742,127.161263 
	C317.516357,140.312897 302.647583,144.261169 286.172302,143.263672 
	C254.209320,141.328476 234.609222,115.400215 241.123291,84.045990 
	C246.105820,60.063549 269.468872,44.384293 295.926849,47.266571 
	C324.031342,50.328224 341.911407,74.663849 336.683807,103.584610 
	C312.799133,103.584610 288.778564,103.584610 264.670807,103.584610 
	C266.172760,114.124992 275.396942,121.825371 287.029694,122.929550 
	C296.558258,123.834000 305.208282,121.564484 312.941040,115.914139 
	C314.553955,114.735580 316.046844,113.037560 318.055786,115.925934 
M283.450104,67.653969 
	C272.147034,70.504257 265.301636,77.537498 264.856781,86.924088 
	C280.905273,86.924088 296.944855,86.924088 313.213562,86.924088 
	C313.077667,85.688965 313.096710,84.692398 312.846893,83.768524 
	C309.583344,71.699043 298.650757,65.468567 283.450104,67.653969 
z"/>
<path fill="#070707" opacity="1.000000" stroke="none" 
	d="
M130.006592,100.997253 
	C130.298141,96.023674 130.140488,90.975113 130.956100,86.089005 
	C135.383057,59.568348 160.422409,43.260090 189.419510,47.791470 
	C214.337341,51.685383 231.057541,75.117065 227.337570,100.950974 
	C227.221741,101.755363 226.938583,102.535660 226.629150,103.729485 
	C202.820938,103.729485 179.046204,103.729485 154.474197,103.729485 
	C156.299866,111.571739 160.328552,116.788361 166.933090,120.097679 
	C178.274673,125.780579 192.486237,123.624298 205.106186,114.471298 
	C209.448303,118.998589 213.766571,123.501015 218.493805,128.429855 
	C205.158234,142.417892 187.617310,145.730072 168.551941,142.389252 
	C147.714020,138.737808 135.048599,125.300835 130.558807,103.161194 
	C130.321655,102.024193 130.164124,101.510727 130.006592,100.997253 
M179.499908,87.317429 
	C187.383606,87.317429 195.267319,87.317429 203.204330,87.317429 
	C202.011749,74.685516 191.760056,66.615875 178.526505,66.972450 
	C165.090942,67.334457 154.558380,77.682159 155.199097,87.316246 
	C162.937515,87.316246 170.718704,87.316246 179.499908,87.317429 
z"/>
<path fill="#060606" opacity="1.000000" stroke="none" 
	d="
M119.710495,119.034187 
	C116.090492,132.571030 106.383072,139.266449 93.414604,141.899704 
	C76.298805,145.375015 59.961777,143.113632 44.705189,134.311081 
	C43.553322,133.646484 42.437531,132.913834 41.343117,132.157608 
	C40.811749,131.790436 40.368683,131.295471 39.453754,130.467545 
	C42.139847,124.892487 44.837200,119.294052 47.739151,113.270973 
	C56.411663,119.035759 65.131233,123.654297 75.144119,124.235512 
	C80.181732,124.527939 85.535294,124.084702 90.292442,122.559517 
	C92.752258,121.770882 95.164909,118.143539 95.905716,115.349785 
	C96.884850,111.657280 93.785378,109.078873 90.446121,108.056602 
	C84.093071,106.111671 77.574753,104.713776 71.162064,102.953903 
	C66.837280,101.767021 62.509880,100.531166 58.297348,99.003670 
	C37.476521,91.453857 39.029175,65.687111 51.873009,55.853607 
	C58.155437,51.043648 65.239815,48.531929 72.978989,47.585850 
	C87.370239,45.826599 101.193024,47.812702 114.372597,53.946396 
	C115.276009,54.366837 116.148811,54.857910 117.012764,55.356174 
	C117.437592,55.601181 117.809525,55.937912 118.474396,56.433739 
	C115.810600,62.304729 113.225685,68.001854 110.925529,73.071373 
	C102.631752,70.744797 94.949463,67.905792 87.015182,66.611450 
	C81.969292,65.788315 76.398163,66.672615 71.366516,67.970039 
	C69.151329,68.541229 66.285072,72.028351 66.260612,74.219986 
	C66.232674,76.724281 68.469643,80.498833 70.726364,81.535080 
	C76.102501,84.003716 82.055679,85.234360 87.802383,86.871643 
	C92.759689,88.284019 97.861839,89.260406 102.710579,90.967461 
	C115.471489,95.460106 120.129417,102.502602 119.754623,116.777580 
	C119.683983,117.966980 119.697235,118.500587 119.710495,119.034187 
z"/>
<path fill="#090909" opacity="1.000000" stroke="none" 
	d="
M379.233521,57.159637 
	C379.397705,58.484932 379.555725,59.367210 379.751465,60.460079 
	C392.892731,49.347874 401.638977,45.858585 412.103729,47.498180 
	C412.103729,54.572525 412.103729,61.671562 412.103729,68.755814 
	C407.732422,69.161682 403.564758,69.250725 399.512360,69.980209 
	C386.877655,72.254639 379.828186,80.853615 379.810547,93.666168 
	C379.791260,107.656090 379.794250,121.646042 379.787750,135.635986 
	C379.786926,137.430557 379.787659,139.225128 379.787659,141.334869 
	C371.551147,141.334869 363.825714,141.334869 355.729004,141.334869 
	C355.729004,110.604012 355.729004,80.036362 355.729004,49.095222 
	C363.230164,49.095222 370.803467,49.095222 379.227386,49.095222 
	C379.227386,51.549244 379.227386,54.132931 379.233521,57.159637 
z"/>
<path fill="#080808" opacity="1.000000" stroke="none" 
	d="
M452.889771,115.999878 
	C452.887268,124.643288 452.887268,132.786697 452.887268,141.271606 
	C444.617950,141.271606 436.736389,141.271606 428.572632,141.271606 
	C428.572632,110.419632 428.572632,79.854301 428.572632,48.995171 
	C436.409424,48.995171 444.005066,48.995171 452.217896,48.995171 
	C452.217896,52.835304 452.217896,56.553860 452.217896,61.636898 
	C461.404907,50.806747 472.103455,46.700928 485.071777,47.166660 
	C485.071777,54.592995 485.071777,61.696869 485.071777,68.992836 
	C481.135254,69.284752 477.175934,69.281296 473.322418,69.917976 
	C460.008881,72.117653 452.841278,80.679062 452.861877,94.002304 
	C452.872925,101.168159 452.882172,108.334023 452.889771,115.999878 
z"/>
<path fill="#F2F2EE" opacity="1.000000" stroke="none" 
	d="
M129.789886,101.113190 
	C130.164124,101.510727 130.321655,102.024193 130.355194,102.787109 
	C130.011841,102.434074 129.792511,101.831604 129.789886,101.113190 
z"/>
<path fill="#F2F2EE" opacity="1.000000" stroke="none" 
	d="
M119.949036,118.959862 
	C119.697235,118.500587 119.683983,117.966980 119.849228,117.220337 
	C120.081017,117.633369 120.134300,118.259453 119.949036,118.959862 
z"/>
<path fill="#FAFAFA" opacity="1.000000" stroke="none" 
	d="
M535.814880,69.578102 
	C548.800415,66.723091 559.473267,70.575043 565.006714,79.844231 
	C571.059082,89.982719 569.720215,105.941589 562.097351,114.522789 
	C553.099854,124.651459 535.711365,124.828674 525.807678,114.994720 
	C513.570740,102.843941 515.382935,76.070122 535.814880,69.578102 
z"/>
<path fill="#F8F8F7" opacity="1.000000" stroke="none" 
	d="
M283.864044,67.552078 
	C298.650757,65.468567 309.583344,71.699043 312.846893,83.768524 
	C313.096710,84.692398 313.077667,85.688965 313.213562,86.924088 
	C296.944855,86.924088 280.905273,86.924088 264.856781,86.924088 
	C265.301636,77.537498 272.147034,70.504257 283.864044,67.552078 
z"/>
<path fill="#F8F8F8" opacity="1.000000" stroke="none" 
	d="
M178.999908,87.316833 
	C170.718704,87.316246 162.937515,87.316246 155.199097,87.316246 
	C154.558380,77.682159 165.090942,67.334457 178.526505,66.972450 
	C191.760056,66.615875 202.011749,74.685516 203.204330,87.317429 
	C195.267319,87.317429 187.383606,87.317429 178.999908,87.316833 
z"/>
</svg>