<svg version="1.1" id="Layer_1" xmlns="http://www.w3.org/2000/svg" xmlns:xlink="http://www.w3.org/1999/xlink" x="0px" y="0px"
	 width="100%" viewBox="0 0 373 445" enable-background="new 0 0 373 445" xml:space="preserve">
<path fill="#020202" opacity="1.000000" stroke="none" 
	d="
M196.000000,446.000000 
	C130.686478,446.000000 65.872955,446.000000 1.029719,446.000000 
	C1.029719,297.731812 1.029719,149.463623 1.029719,1.097713 
	C125.230125,1.097713 249.460358,1.097713 373.845276,1.097713 
	C373.845276,149.333206 373.845276,297.666595 373.845276,446.000000 
	C314.797028,446.000000 255.648514,446.000000 196.000000,446.000000 
M61.934139,310.500000 
	C61.943748,322.498352 62.096577,334.499298 61.875698,346.493408 
	C61.809429,350.091827 62.870987,352.154480 66.020256,354.043762 
	C104.739372,377.271729 143.520798,400.404419 181.881973,424.212952 
	C189.158722,428.729187 194.396255,429.609283 201.072083,424.086273 
	C203.727020,421.889862 205.355194,420.311615 205.343750,416.629211 
	C205.194519,368.635834 205.188141,320.641876 205.273895,272.648285 
	C205.279678,269.415833 204.337799,267.543732 201.515320,265.888519 
	C184.988953,256.196869 168.619522,246.237579 152.090942,236.549759 
	C148.738632,234.584854 147.264481,232.481293 147.274109,228.332245 
	C147.407272,171.006821 147.319061,113.680878 147.272537,56.355076 
	C147.271164,54.654530 147.133209,52.954098 147.047546,50.992851 
	C145.901382,51.430576 145.412354,51.536648 145.008896,51.782928 
	C118.559029,67.928596 92.142014,84.128464 65.634399,100.178703 
	C62.825989,101.879181 61.909748,103.796135 61.919598,106.992676 
	C62.023888,140.821243 62.070171,174.650772 61.871071,208.478500 
	C61.845901,212.754898 63.297810,214.929016 66.874832,217.047256 
	C102.570457,238.185516 138.128113,259.556702 173.803345,280.729614 
	C176.907990,282.572205 178.076385,284.573914 178.062164,288.216217 
	C177.935822,320.544739 178.023102,352.874084 178.028183,385.203186 
	C178.028381,386.427094 177.833176,387.651031 177.668060,389.591278 
	C175.521286,388.323639 173.979584,387.429169 172.453018,386.509552 
	C148.050705,371.809326 123.834038,356.786102 99.137733,342.597717 
	C91.714134,338.332764 88.287796,333.790253 89.242157,325.070038 
	C90.114365,317.100403 89.427116,308.960052 89.427116,299.715363 
	C109.123772,311.574188 127.706734,322.762482 146.989563,334.372162 
	C146.989563,324.203308 146.864380,314.933960 147.060577,305.671387 
	C147.125229,302.619293 146.127014,300.926697 143.484619,299.368347 
	C117.367203,283.965240 91.336571,268.415070 65.268044,252.928940 
	C64.362785,252.391190 63.318256,252.087891 61.931942,251.504044 
	C61.931942,271.210846 61.931942,290.355438 61.934139,310.500000 
M205.259079,83.500595 
	C205.259079,77.288185 205.259079,71.075768 205.259079,64.220695 
	C207.311066,65.347946 208.482651,65.937996 209.602051,66.614403 
	C233.272797,80.917389 256.573273,95.890923 280.772461,109.234810 
	C291.319244,115.050484 295.682159,121.662140 294.008606,133.425735 
	C293.046844,140.185959 293.834198,147.195023 293.834198,155.144318 
	C274.393799,143.103302 255.961090,131.686432 236.694443,119.753036 
	C236.694443,129.757843 236.899200,138.847992 236.597794,147.921341 
	C236.469925,151.770218 237.749161,153.861099 241.048386,155.820145 
	C266.546936,170.960892 291.919525,186.313705 317.341919,201.582840 
	C318.411682,202.225357 319.587891,202.690689 321.279968,203.513519 
	C321.279968,201.385925 321.279968,199.922699 321.279968,198.459457 
	C321.280334,168.464050 321.163177,138.467697 321.404114,108.474228 
	C321.441498,103.824066 319.851746,101.393425 316.010468,99.070915 
	C277.516754,75.797157 238.988739,52.572140 200.854568,28.719215 
	C193.843216,24.333620 188.919571,23.710663 182.520294,28.950981 
	C179.375961,31.525850 177.869705,33.677361 177.887283,37.844807 
	C178.088959,85.670074 178.127121,133.496414 178.010788,181.321976 
	C178.000519,185.545807 179.319992,187.879364 182.965378,189.961761 
	C199.165695,199.216034 215.139420,208.866669 231.326340,218.145004 
	C234.808197,220.140808 235.969162,222.447647 235.962631,226.434128 
	C235.869675,283.258575 235.953003,340.083282 235.993607,396.907928 
	C235.994827,398.611176 235.993759,400.314392 235.993759,402.698120 
	C237.663193,401.839722 238.396454,401.515594 239.077484,401.104858 
	C265.041199,385.444000 290.957611,369.703857 317.011871,354.195190 
	C320.375275,352.193146 321.342072,350.006012 321.325317,346.239777 
	C321.177612,313.078827 321.147125,279.916290 321.373169,246.756165 
	C321.403351,242.323975 320.048615,239.909531 316.299072,237.683929 
	C280.770874,216.595642 245.377823,195.279724 209.856766,174.179306 
	C206.469620,172.167267 205.085159,170.063156 205.118317,165.986969 
	C205.339203,138.826187 205.250763,111.662865 205.259079,83.500595 
z"/>
<path fill="#FAFBFA" opacity="1.000000" stroke="none" 
	d="
M61.933041,310.000000 
	C61.931942,290.355438 61.931942,271.210846 61.931942,251.504044 
	C63.318256,252.087891 64.362785,252.391190 65.268044,252.928940 
	C91.336571,268.415070 117.367203,283.965240 143.484619,299.368347 
	C146.127014,300.926697 147.125229,302.619293 147.060577,305.671387 
	C146.864380,314.933960 146.989563,324.203308 146.989563,334.372162 
	C127.706734,322.762482 109.123772,311.574188 89.427116,299.715363 
	C89.427116,308.960052 90.114365,317.100403 89.242157,325.070038 
	C88.287796,333.790253 91.714134,338.332764 99.137733,342.597717 
	C123.834038,356.786102 148.050705,371.809326 172.453018,386.509552 
	C173.979584,387.429169 175.521286,388.323639 177.668060,389.591278 
	C177.833176,387.651031 178.028381,386.427094 178.028183,385.203186 
	C178.023102,352.874084 177.935822,320.544739 178.062164,288.216217 
	C178.076385,284.573914 176.907990,282.572205 173.803345,280.729614 
	C138.128113,259.556702 102.570457,238.185516 66.874832,217.047256 
	C63.297810,214.929016 61.845901,212.754898 61.871071,208.478500 
	C62.070171,174.650772 62.023888,140.821243 61.919598,106.992676 
	C61.909748,103.796135 62.825989,101.879181 65.634399,100.178703 
	C92.142014,84.128464 118.559029,67.928596 145.008896,51.782928 
	C145.412354,51.536648 145.901382,51.430576 147.047546,50.992851 
	C147.133209,52.954098 147.271164,54.654530 147.272537,56.355076 
	C147.319061,113.680878 147.407272,171.006821 147.274109,228.332245 
	C147.264481,232.481293 148.738632,234.584854 152.090942,236.549759 
	C168.619522,246.237579 184.988953,256.196869 201.515320,265.888519 
	C204.337799,267.543732 205.279678,269.415833 205.273895,272.648285 
	C205.188141,320.641876 205.194519,368.635834 205.343750,416.629211 
	C205.355194,420.311615 203.727020,421.889862 201.072083,424.086273 
	C194.396255,429.609283 189.158722,428.729187 181.881973,424.212952 
	C143.520798,400.404419 104.739372,377.271729 66.020256,354.043762 
	C62.870987,352.154480 61.809429,350.091827 61.875698,346.493408 
	C62.096577,334.499298 61.943748,322.498352 61.933041,310.000000 
M120.066147,203.480438 
	C120.066147,169.007935 120.066147,134.535431 120.066147,98.853058 
	C109.565353,105.312752 100.320518,110.869514 91.271904,116.729279 
	C90.126556,117.470993 89.499672,119.799782 89.493652,121.396515 
	C89.402122,145.697845 89.387024,170.000320 89.605888,194.300247 
	C89.622612,196.156387 91.073982,198.682541 92.639236,199.725281 
	C99.974754,204.611984 107.576546,209.099930 115.101219,213.700912 
	C116.534584,214.577332 118.049110,215.321014 120.064644,216.419373 
	C120.064644,211.777603 120.064644,208.123398 120.066147,203.480438 
z"/>
<path fill="#FBFBFA" opacity="1.000000" stroke="none" 
	d="
M205.260971,84.000488 
	C205.250763,111.662865 205.339203,138.826187 205.118317,165.986969 
	C205.085159,170.063156 206.469620,172.167267 209.856766,174.179306 
	C245.377823,195.279724 280.770874,216.595642 316.299072,237.683929 
	C320.048615,239.909531 321.403351,242.323975 321.373169,246.756165 
	C321.147125,279.916290 321.177612,313.078827 321.325317,346.239777 
	C321.342072,350.006012 320.375275,352.193146 317.011871,354.195190 
	C290.957611,369.703857 265.041199,385.444000 239.077484,401.104858 
	C238.396454,401.515594 237.663193,401.839722 235.993759,402.698120 
	C235.993759,400.314392 235.994827,398.611176 235.993607,396.907928 
	C235.953003,340.083282 235.869675,283.258575 235.962631,226.434128 
	C235.969162,222.447647 234.808197,220.140808 231.326340,218.145004 
	C215.139420,208.866669 199.165695,199.216034 182.965378,189.961761 
	C179.319992,187.879364 178.000519,185.545807 178.010788,181.321976 
	C178.127121,133.496414 178.088959,85.670074 177.887283,37.844807 
	C177.869705,33.677361 179.375961,31.525850 182.520294,28.950981 
	C188.919571,23.710663 193.843216,24.333620 200.854568,28.719215 
	C238.988739,52.572140 277.516754,75.797157 316.010468,99.070915 
	C319.851746,101.393425 321.441498,103.824066 321.404114,108.474228 
	C321.163177,138.467697 321.280334,168.464050 321.279968,198.459457 
	C321.279968,199.922699 321.279968,201.385925 321.279968,203.513519 
	C319.587891,202.690689 318.411682,202.225357 317.341919,201.582840 
	C291.919525,186.313705 266.546936,170.960892 241.048386,155.820145 
	C237.749161,153.861099 236.469925,151.770218 236.597794,147.921341 
	C236.899200,138.847992 236.694443,129.757843 236.694443,119.753036 
	C255.961090,131.686432 274.393799,143.103302 293.834198,155.144318 
	C293.834198,147.195023 293.046844,140.185959 294.008606,133.425735 
	C295.682159,121.662140 291.319244,115.050484 280.772461,109.234810 
	C256.573273,95.890923 233.272797,80.917389 209.602051,66.614403 
	C208.482651,65.937996 207.311066,65.347946 205.259079,64.220695 
	C205.259079,71.075768 205.259079,77.288185 205.260971,84.000488 
M263.576691,239.480667 
	C263.501770,240.139801 263.361115,240.798965 263.361359,241.458069 
	C263.375275,278.116333 263.399200,314.774628 263.437653,351.432892 
	C263.438446,352.199585 263.621613,352.966064 263.826019,354.563507 
	C273.716675,348.515961 283.091034,342.892090 292.297729,337.005859 
	C293.343475,336.337311 293.914032,334.195801 293.917450,332.735413 
	C293.974487,308.407867 293.934692,284.079895 293.792877,259.752747 
	C293.784393,258.302399 293.158417,256.169312 292.102356,255.519028 
	C282.903748,249.854980 273.541260,244.457092 263.576691,239.480667 
z"/>
<path fill="#060606" opacity="1.000000" stroke="none" 
	d="
M120.065399,203.974823 
	C120.064644,208.123398 120.064644,211.777603 120.064644,216.419373 
	C118.049110,215.321014 116.534584,214.577332 115.101219,213.700912 
	C107.576546,209.099930 99.974754,204.611984 92.639236,199.725281 
	C91.073982,198.682541 89.622612,196.156387 89.605888,194.300247 
	C89.387024,170.000320 89.402122,145.697845 89.493652,121.396515 
	C89.499672,119.799782 90.126556,117.470993 91.271904,116.729279 
	C100.320518,110.869514 109.565353,105.312752 120.066147,98.853058 
	C120.066147,134.535431 120.066147,169.007935 120.065399,203.974823 
z"/>
<path fill="#080808" opacity="1.000000" stroke="none" 
	d="
M263.902069,239.230377 
	C273.541260,244.457092 282.903748,249.854980 292.102356,255.519028 
	C293.158417,256.169312 293.784393,258.302399 293.792877,259.752747 
	C293.934692,284.079895 293.974487,308.407867 293.917450,332.735413 
	C293.914032,334.195801 293.343475,336.337311 292.297729,337.005859 
	C283.091034,342.892090 273.716675,348.515961 263.826019,354.563507 
	C263.621613,352.966064 263.438446,352.199585 263.437653,351.432892 
	C263.399200,314.774628 263.375275,278.116333 263.361359,241.458069 
	C263.361115,240.798965 263.501770,240.139801 263.902069,239.230377 
z"/>
</svg>